<?xml version="1.0" encoding="UTF-8"?>
<svg width="256px" height="256px" viewBox="0 0 1024 1024" version="1.1" xmlns="http://www.w3.org/2000/svg" xmlns:xlink="http://www.w3.org/1999/xlink">
    <title>编组</title>
    <g id="页面-2" stroke="none" stroke-width="1" fill="none" fill-rule="evenodd">
        <g id="编组">
            <rect id="矩形" fill="#FF3432" x="0" y="0" width="1024" height="1024" rx="180"></rect>
            <rect id="矩形" fill="#FFFFFF" x="377" y="437" width="270" height="150"></rect>
            <path d="M199.769667,354.714275 L328.57245,389.810838 C339.451694,392.775246 347,402.65554 347,413.931429 L347,602.305564 C347,613.147341 340.011902,622.753437 329.696723,626.091284 L200.719357,667.82654 C187.582866,672.077323 173.487697,664.874034 169.236914,651.737544 C168.43067,649.245952 168.020915,646.643153 168.022639,644.024363 L168.197223,378.818408 C168.206312,365.011292 179.406559,353.825782 193.213675,353.834871 C195.428311,353.836329 197.632934,354.132051 199.769667,354.714275 Z" id="矩形" fill="#FFFFFF"></path>
            <path d="M708.769667,354.714275 L837.57245,389.810838 C848.451694,392.775246 856,402.65554 856,413.931429 L856,602.305564 C856,613.147341 849.011902,622.753437 838.696723,626.091284 L709.719357,667.82654 C696.582866,672.077323 682.487697,664.874034 678.236914,651.737544 C677.43067,649.245952 677.020915,646.643153 677.022639,644.024363 L677.197223,378.818408 C677.206312,365.011292 688.406559,353.825782 702.213675,353.834871 C704.428311,353.836329 706.632934,354.132051 708.769667,354.714275 Z" id="矩形" fill="#FFFFFF" transform="translate(766.5, 512.2656) scale(-1, 1) translate(-766.5, -512.2656)"></path>
            <path d="M66.1369584,427.589775 L138.194301,399.242188 L138.194301,399.242188 L138.194301,624.675781 L55.4804131,454.963609 C50.6411478,445.034416 54.7673501,433.062214 64.6965439,428.222949 C65.1681908,427.993079 65.6487008,427.781857 66.1369584,427.589775 Z" id="矩形" fill="#FFFFFF"></path>
            <path d="M906.136958,427.589775 L978.194301,399.242188 L978.194301,399.242188 L978.194301,624.675781 L895.480413,454.963609 C890.641148,445.034416 894.76735,433.062214 904.696544,428.222949 C905.168191,427.993079 905.648701,427.781857 906.136958,427.589775 Z" id="矩形" fill="#FFFFFF" transform="translate(932.0972, 511.959) scale(-1, 1) translate(-932.0972, -511.959)"></path>
        </g>
    </g>
</svg>